<svg width="86" height="86" viewBox="0 0 86 86" fill="none" xmlns="http://www.w3.org/2000/svg">
<path fill-rule="evenodd" clip-rule="evenodd" d="M41.7496 51.426C41.8425 51.5004 41.916 51.558 41.9671 51.5975L42.499 51.9965L43.0309 51.5975C43.082 51.558 43.1555 51.5004 43.2484 51.426C43.434 51.2773 43.697 51.0608 44.0116 50.7861C44.6399 50.2375 45.4794 49.4522 46.3213 48.506C47.9702 46.6529 49.773 44.024 49.773 41.274C49.773 37.2567 46.5163 34 42.499 34C38.4817 34 35.225 37.2567 35.225 41.274C35.225 44.024 37.0278 46.6529 38.6767 48.506C39.5186 49.4522 40.3581 50.2375 40.9864 50.7861C41.301 51.0608 41.564 51.2773 41.7496 51.426ZM42.499 35.5C39.3101 35.5 36.725 38.0851 36.725 41.274C36.725 43.4319 38.1842 45.696 39.7973 47.5089C40.5864 48.3958 41.3779 49.1367 41.9729 49.6561C42.1739 49.8317 42.3519 49.9814 42.499 50.1023C42.6461 49.9814 42.8241 49.8317 43.0251 49.6561C43.6201 49.1367 44.4116 48.3958 45.2007 47.5089C46.8138 45.696 48.273 43.4319 48.273 41.274C48.273 38.0851 45.6879 35.5 42.499 35.5Z" fill="#222222"/>
<path fill-rule="evenodd" clip-rule="evenodd" d="M42.499 38.762C41.1117 38.762 39.987 39.8867 39.987 41.274C39.987 42.6613 41.1117 43.786 42.499 43.786C43.8863 43.786 45.011 42.6613 45.011 41.274C45.011 39.8867 43.8863 38.762 42.499 38.762ZM38.487 41.274C38.487 39.0582 40.2832 37.262 42.499 37.262C44.7148 37.262 46.511 39.0582 46.511 41.274C46.511 43.4898 44.7148 45.286 42.499 45.286C40.2832 45.286 38.487 43.4898 38.487 41.274Z" fill="#222222"/>
<rect x="85" width="1" height="85" fill="#EBEBEB"/>
<rect y="85" width="85" height="1" fill="#EBEBEB"/>
</svg>
