<svg width="86" height="86" viewBox="0 0 86 86" fill="none" xmlns="http://www.w3.org/2000/svg">
<rect width="1" height="85" fill="#EBEBEB"/>
<g clip-path="url(#clip0_1_686)">
<path fill-rule="evenodd" clip-rule="evenodd" d="M47.9711 34.039C47.2495 33.873 46.5202 34.2501 46.2292 34.9205L46.2279 34.9235L44.6794 38.5339C44.4123 39.1569 44.589 39.8838 45.1182 40.3127L46.605 41.5309C45.5779 43.4478 43.982 45.06 42.0322 46.103L40.812 44.6144C40.3828 44.0907 39.6615 43.9089 39.0347 44.1775L35.4271 45.7223L35.4208 45.7251C34.7525 46.0186 34.3721 46.7489 34.5392 47.4702L35.3117 50.8214C35.4711 51.5095 36.0835 52.0002 36.7956 52.0002C45.4612 52.0002 52.4982 44.9796 52.5 36.302C52.5049 35.5887 52.0162 34.9739 51.3229 34.8146L47.9711 34.039ZM47.6052 35.5178L46.0581 39.1248L48.4714 41.121L48.2233 41.6496C46.9892 44.2787 44.8358 46.4629 42.1504 47.7212L41.622 47.9687L39.6255 45.5562L36.0227 47.099C36.0135 47.1034 36.0072 47.11 36.0033 47.1176C35.9992 47.1255 36.0004 47.131 36.0004 47.131L36.0006 47.1321L36.7731 50.4831C36.7754 50.493 36.7837 50.5002 36.7956 50.5002C44.635 50.5002 51 44.1483 51 36.2987V36.292C51.0001 36.2877 50.9992 36.2846 50.9992 36.2846L50.9976 36.2818L50.9949 36.2794C50.9949 36.2794 50.9919 36.2776 50.9876 36.2766L50.9862 36.2763L47.6348 35.5008C47.6315 35.5001 47.6272 35.5003 47.6272 35.5003C47.625 35.5006 47.6221 35.5014 47.619 35.503C47.6129 35.5061 47.6081 35.5113 47.6052 35.5178Z" fill="#222222"/>
</g>
<rect x="1" y="85" width="85" height="1" fill="#EBEBEB"/>
<defs>
<clipPath id="clip0_1_686">
<rect width="18" height="18" fill="white" transform="translate(34.5 34)"/>
</clipPath>
</defs>
</svg>
